# xmcd CD database file
#
# Track frame offsets:
#	150
#	12357
#	29707
#	46647
#	60260
#	74205
#	89942
#	105645
#	122915
#	144415
#	163035
#	175527
#	189859
#	204142
#	216115
#
# Disc length: 3066 seconds
#
# Revision: 3
# Processed by: cddbd v1.5.2PL0 Copyright (c) Steve Scherf et al.
# Submitted via: CDex 1.70beta2
#
DISCID=d10bf80f
DTITLE=Kenny Rogers - Endless Love-CD 2
DYEAR=1996
DGENRE=Country
TTITLE0=It Had To Be You
TTITLE1=I Swear
TTITLE2=Stardust
TTITLE3=I Will Always Love You
TTITLE4=You Send Me
TTITLE5=Through The Years
TTITLE6=Unchained Melody
TTITLE7=Lady
TTITLE8=Always And Forever
TTITLE9=My Funny Valentine
TTITLE10=Somewhere My Love
TTITLE11=You Are So Beautiful
TTITLE12=You LightUp My Life
TTITLE13=Love Is A Many Splendored Thing
TTITLE14=Love Me Tender
EXTD=YEAR: 1996
EXTT0=
EXTT1=
EXTT2=
EXTT3=
EXTT4=
EXTT5=
EXTT6=
EXTT7=
EXTT8=
EXTT9=
EXTT10=
EXTT11=
EXTT12=
EXTT13=
EXTT14=
PLAYORDER=
